<?xml version="1.0" standalone="no"?>
<!DOCTYPE svg PUBLIC "-//W3C//DTD SVG 20010904//EN"
 "http://www.w3.org/TR/2001/REC-SVG-20010904/DTD/svg10.dtd">
<svg version="1.0" xmlns="http://www.w3.org/2000/svg"
 width="256.000000pt" height="256.000000pt" viewBox="0 0 256.000000 256.000000"
 preserveAspectRatio="xMidYMid meet">
<metadata>
Created by potrace 1.14, written by Peter Selinger 2001-2017
</metadata>
<g transform="translate(0.000000,256.000000) scale(0.100000,-0.100000)"
fill="#000000" stroke="none">
<path d="M0 2255 l0 -305 305 0 305 0 0 305 0 305 -305 0 -305 0 0 -305z m520
5 l0 -220 -220 0 -220 0 0 220 0 220 220 0 220 0 0 -220z"/>
<path d="M170 2255 l0 -135 135 0 135 0 0 135 0 135 -135 0 -135 0 0 -135z"/>
<path d="M790 2520 l0 -40 -45 0 -45 0 0 -45 0 -45 90 0 90 0 0 85 0 85 -45 0
-45 0 0 -40z"/>
<path d="M970 2520 l0 -40 130 0 130 0 0 -45 0 -45 -130 0 -130 0 0 -90 0 -90
-90 0 -90 0 0 -45 0 -45 -45 0 -45 0 0 -130 0 -130 -175 0 -175 0 0 -45 0 -45
45 0 45 0 0 -45 0 -45 -45 0 -45 0 0 -45 0 -45 -45 0 -45 0 0 45 0 45 -45 0
-45 0 0 45 0 45 -85 0 -85 0 0 -45 0 -45 40 0 40 0 0 -45 0 -45 -40 0 -40 0 0
-175 0 -175 40 0 40 0 0 45 0 45 90 0 90 0 0 -45 0 -45 -45 0 -45 0 0 -130 0
-130 90 0 90 0 0 -45 0 -45 -90 0 -90 0 0 -45 0 -45 -85 0 -85 0 0 -45 0 -45
85 0 85 0 0 45 0 45 175 0 175 0 0 -45 0 -45 90 0 90 0 0 -175 0 -175 135 0
135 0 0 45 0 45 85 0 85 0 0 -90 0 -90 -45 0 -45 0 0 -90 0 -90 -40 0 -40 0 0
-45 0 -45 130 0 130 0 0 45 0 45 90 0 90 0 0 -45 0 -45 45 0 45 0 0 90 0 90
220 0 220 0 0 45 0 45 -135 0 -135 0 0 45 0 45 180 0 180 0 0 -45 0 -45 40 0
40 0 0 45 0 45 45 0 45 0 0 45 0 45 45 0 45 0 0 40 0 40 -45 0 -45 0 0 90 0
90 45 0 45 0 0 -45 0 -45 45 0 45 0 0 45 0 45 -45 0 -45 0 0 45 0 45 -90 0
-90 0 0 45 0 45 90 0 90 0 0 85 0 85 -130 0 -130 0 0 -40 0 -40 40 0 40 0 0
-45 0 -45 -40 0 -40 0 0 -45 0 -45 -310 0 -310 0 0 45 0 45 130 0 130 0 0 45
0 45 45 0 45 0 0 -45 0 -45 45 0 45 0 0 85 0 85 -45 0 -45 0 0 45 0 45 -45 0
-45 0 0 45 0 45 -45 0 -45 0 0 -45 0 -45 -40 0 -40 0 0 45 0 45 -45 0 -45 0 0
45 0 45 -90 0 -90 0 0 90 0 90 45 0 45 0 0 -45 0 -45 45 0 45 0 0 85 0 85 -90
0 -90 0 0 135 0 135 45 0 45 0 0 -45 0 -45 45 0 45 0 0 45 0 45 45 0 45 0 0
90 0 90 40 0 40 0 0 -45 0 -45 45 0 45 0 0 -45 0 -45 45 0 45 0 0 -45 0 -45
-130 0 -130 0 0 -90 0 -90 85 0 85 0 0 -40 0 -40 45 0 45 0 0 -45 0 -45 45 0
45 0 0 45 0 45 45 0 45 0 0 85 0 85 85 0 85 0 0 -85 0 -85 -40 0 -40 0 0 -45
0 -45 -45 0 -45 0 0 -45 0 -45 45 0 45 0 0 45 0 45 40 0 40 0 0 -90 0 -90 -85
0 -85 0 0 -45 0 -45 85 0 85 0 0 45 0 45 45 0 45 0 0 -45 0 -45 45 0 45 0 0
45 0 45 -45 0 -45 0 0 90 0 90 45 0 45 0 0 -45 0 -45 45 0 45 0 0 45 0 45 -45
0 -45 0 0 85 0 85 -45 0 -45 0 0 90 0 90 -45 0 -45 0 0 45 0 45 -85 0 -85 0 0
-90 0 -90 -45 0 -45 0 0 -45 0 -45 -45 0 -45 0 0 90 0 90 45 0 45 0 0 135 0
135 -45 0 -45 0 0 40 0 40 -45 0 -45 0 0 135 0 135 45 0 45 0 0 45 0 45 45 0
45 0 0 40 0 40 -90 0 -90 0 0 -40 0 -40 -175 0 -175 0 0 40 0 40 -175 0 -175
0 0 -40z m350 -175 l0 -45 45 0 45 0 0 45 0 45 45 0 45 0 0 -45 0 -45 40 0 40
0 0 -45 0 -45 -130 0 -130 0 0 -45 0 -45 45 0 45 0 0 -130 0 -130 -45 0 -45 0
0 90 0 90 -45 0 -45 0 0 -45 0 -45 -45 0 -45 0 0 45 0 45 -45 0 -45 0 0 -45 0
-45 -40 0 -40 0 0 45 0 45 40 0 40 0 0 40 0 40 -40 0 -40 0 0 45 0 45 40 0 40
0 0 45 0 45 45 0 45 0 0 -45 0 -45 -45 0 -45 0 0 -45 0 -45 90 0 90 0 0 135 0
135 45 0 45 0 0 -45z m350 -265 l0 -40 45 0 45 0 0 -45 0 -45 -45 0 -45 0 0
45 0 45 -45 0 -45 0 0 40 0 40 45 0 45 0 0 -40z m-790 -85 l0 -45 -45 0 -45 0
0 45 0 45 45 0 45 0 0 -45z m0 -180 l0 -45 45 0 45 0 0 45 0 45 40 0 40 0 0
-45 0 -45 45 0 45 0 0 -90 0 -90 45 0 45 0 0 -40 0 -40 -45 0 -45 0 0 40 0 40
-85 0 -85 0 0 45 0 45 -45 0 -45 0 0 -130 0 -130 85 0 85 0 0 -45 0 -45 90 0
90 0 0 -45 0 -45 -90 0 -90 0 0 -130 0 -130 -40 0 -40 0 0 -45 0 -45 -45 0
-45 0 0 45 0 45 -45 0 -45 0 0 -90 0 -90 45 0 45 0 0 -45 0 -45 45 0 45 0 0
-45 0 -45 -90 0 -90 0 0 90 0 90 -45 0 -45 0 0 45 0 45 -45 0 -45 0 0 -45 0
-45 -45 0 -45 0 0 45 0 45 45 0 45 0 0 45 0 45 -85 0 -85 0 0 85 0 85 -90 0
-90 0 0 45 0 45 45 0 45 0 0 45 0 45 45 0 45 0 0 45 0 45 -135 0 -135 0 0 85
0 85 45 0 45 0 0 -40 0 -40 45 0 45 0 0 40 0 40 220 0 220 0 0 90 0 90 -45 0
-45 0 0 -45 0 -45 -90 0 -90 0 0 45 0 45 90 0 90 0 0 45 0 45 90 0 90 0 0 -45z
m1320 -350 l0 -45 -45 0 -45 0 0 45 0 45 45 0 45 0 0 -45z m-790 -270 l0 -45
45 0 45 0 0 -45 0 -45 40 0 40 0 0 -40 0 -40 -40 0 -40 0 0 40 0 40 -45 0 -45
0 0 45 0 45 -45 0 -45 0 0 45 0 45 45 0 45 0 0 -45z m-90 -220 l0 -85 -45 0
-45 0 0 -45 0 -45 45 0 45 0 0 -45 0 -45 45 0 45 0 0 -90 0 -90 -90 0 -90 0 0
45 0 45 -45 0 -45 0 0 -45 0 -45 -45 0 -45 0 0 45 0 45 45 0 45 0 0 45 0 45
-45 0 -45 0 0 90 0 90 45 0 45 0 0 85 0 85 90 0 90 0 0 -85z m440 -310 l0 -45
-45 0 -45 0 0 -130 0 -130 -45 0 -45 0 0 -45 0 -45 -175 0 -175 0 0 -90 0 -90
-45 0 -45 0 0 90 0 90 45 0 45 0 0 45 0 45 45 0 45 0 0 45 0 45 90 0 90 0 0
85 0 85 85 0 85 0 0 45 0 45 45 0 45 0 0 -45z m350 -85 l0 -130 -130 0 -130 0
0 130 0 130 130 0 130 0 0 -130z m-1140 -90 l0 -40 -45 0 -45 0 0 40 0 40 45
0 45 0 0 -40z"/>
<path d="M970 1725 l0 -45 40 0 40 0 0 45 0 45 -40 0 -40 0 0 -45z"/>
<path d="M520 1465 l0 -45 45 0 45 0 0 -45 0 -45 -45 0 -45 0 0 -45 0 -45 -40
0 -40 0 0 -45 0 -45 40 0 40 0 0 -45 0 -45 45 0 45 0 0 -40 0 -40 90 0 90 0 0
40 0 40 45 0 45 0 0 -40 0 -40 45 0 45 0 0 40 0 40 -45 0 -45 0 0 45 0 45 -90
0 -90 0 0 45 0 45 135 0 135 0 0 45 0 45 -45 0 -45 0 0 45 0 45 -45 0 -45 0 0
45 0 45 -45 0 -45 0 0 -45 0 -45 -45 0 -45 0 0 45 0 45 -45 0 -45 0 0 -45z
m90 -270 l0 -45 45 0 45 0 0 -45 0 -45 -45 0 -45 0 0 45 0 45 -45 0 -45 0 0
45 0 45 45 0 45 0 0 -45z"/>
<path d="M1140 755 l0 -45 45 0 45 0 0 45 0 45 -45 0 -45 0 0 -45z"/>
<path d="M1500 405 l0 -45 40 0 40 0 0 45 0 45 -40 0 -40 0 0 -45z"/>
<path d="M1940 575 l0 -45 45 0 45 0 0 45 0 45 -45 0 -45 0 0 -45z"/>
<path d="M1940 2255 l0 -305 310 0 310 0 0 305 0 305 -310 0 -310 0 0 -305z
m530 5 l0 -220 -220 0 -220 0 0 220 0 220 220 0 220 0 0 -220z"/>
<path d="M2110 2255 l0 -135 135 0 135 0 0 135 0 135 -135 0 -135 0 0 -135z"/>
<path d="M1760 2255 l0 -45 45 0 45 0 0 45 0 45 -45 0 -45 0 0 -45z"/>
<path d="M2380 1770 l0 -90 45 0 45 0 0 -45 0 -45 -45 0 -45 0 0 -40 0 -40 45
0 45 0 0 -135 0 -135 -45 0 -45 0 0 -90 0 -90 45 0 45 0 0 -85 0 -85 45 0 45
0 0 440 0 440 -45 0 -45 0 0 45 0 45 -45 0 -45 0 0 -90z"/>
<path d="M1500 1465 l0 -45 40 0 40 0 0 -45 0 -45 45 0 45 0 0 45 0 45 -45 0
-45 0 0 45 0 45 -40 0 -40 0 0 -45z"/>
<path d="M1760 1285 l0 -45 45 0 45 0 0 45 0 45 -45 0 -45 0 0 -45z"/>
<path d="M0 1020 l0 -40 40 0 40 0 0 40 0 40 -40 0 -40 0 0 -40z"/>
<path d="M2470 620 l0 -90 -45 0 -45 0 0 -40 0 -40 45 0 45 0 0 -45 0 -45 -45
0 -45 0 0 -45 0 -45 -45 0 -45 0 0 -45 0 -45 -45 0 -45 0 0 -45 0 -45 -45 0
-45 0 0 45 0 45 -40 0 -40 0 0 -45 0 -45 -45 0 -45 0 0 -45 0 -45 45 0 45 0 0
45 0 45 40 0 40 0 0 -45 0 -45 90 0 90 0 0 90 0 90 45 0 45 0 0 -90 0 -90 45
0 45 0 0 45 0 45 45 0 45 0 0 90 0 90 -45 0 -45 0 0 45 0 45 45 0 45 0 0 175
0 175 -45 0 -45 0 0 -90z"/>
<path d="M0 310 l0 -310 305 0 305 0 0 310 0 310 -305 0 -305 0 0 -310z m520
0 l0 -220 -220 0 -220 0 0 220 0 220 220 0 220 0 0 -220z"/>
<path d="M170 315 l0 -135 135 0 135 0 0 135 0 135 -135 0 -135 0 0 -135z"/>
<path d="M790 180 l0 -90 45 0 45 0 0 45 0 45 45 0 45 0 0 45 0 45 -90 0 -90
0 0 -90z"/>
</g>
</svg>
