<?xml version="1.0" standalone="no"?>
<!DOCTYPE svg PUBLIC "-//W3C//DTD SVG 20010904//EN"
 "http://www.w3.org/TR/2001/REC-SVG-20010904/DTD/svg10.dtd">
<svg version="1.0" xmlns="http://www.w3.org/2000/svg"
 width="160.000000pt" height="160.000000pt" viewBox="0 0 160.000000 160.000000"
 preserveAspectRatio="xMidYMid meet">
<metadata>
Created by potrace 1.10, written by Peter Selinger 2001-2011
</metadata>
<g transform="translate(0.000000,160.000000) scale(0.100000,-0.100000)"
fill="#000000" stroke="none">
<path d="M473 1367 l-323 -162 0 -405 0 -405 325 -163 325 -162 325 162 325
163 0 405 0 405 -325 163 c-179 89 -326 162 -328 161 -1 0 -147 -73 -324 -162z
m451 82 c61 -28 129 -63 151 -78 23 -15 56 -33 73 -39 18 -6 45 -20 60 -30 15
-10 42 -24 60 -31 17 -8 32 -18 32 -23 0 -5 4 -7 8 -4 5 3 33 -7 63 -21 l54
-25 -312 -156 -311 -156 -79 37 c-43 21 -184 91 -313 156 l-235 120 45 20 c25
11 52 21 60 23 8 2 17 6 20 9 3 3 46 26 95 50 50 24 93 47 96 52 3 5 12 9 20
10 8 2 29 13 47 25 l32 23 0 -28 0 -28 185 3 c213 4 203 10 156 -93 -52 -115
-167 -215 -279 -245 -43 -11 -43 -12 -26 -31 9 -10 25 -19 34 -19 34 0 143 63
200 117 67 62 98 109 140 219 27 70 28 79 14 87 -9 5 -100 9 -203 8 -102 -1
-191 2 -198 7 -8 5 11 18 55 37 37 16 76 34 87 42 31 21 51 16 169 -38z m-287
-500 l153 -74 0 -387 c0 -214 -4 -388 -9 -388 -4 0 -20 9 -35 21 -14 11 -26
17 -26 13 0 -4 -8 0 -17 8 -10 8 -33 20 -50 28 -18 7 -33 17 -33 22 0 5 -4 7
-8 4 -4 -2 -37 10 -72 28 -191 97 -235 120 -240 125 -3 3 -14 7 -24 9 -20 4
-58 26 -88 52 -17 13 -18 45 -18 392 l0 378 158 -78 c86 -43 226 -112 309
-153z m793 -147 l0 -379 -43 -30 c-23 -17 -52 -33 -62 -35 -11 -1 -22 -6 -25
-9 -3 -4 -23 -15 -45 -26 -22 -11 -104 -52 -182 -91 -77 -40 -146 -72 -151
-72 -6 0 -12 -3 -14 -7 -4 -10 -84 -53 -97 -53 -8 0 -11 122 -11 383 l0 384
313 156 c171 85 313 156 315 156 1 1 2 -169 2 -377z"/>
<path d="M270 813 c0 -19 14 -30 74 -60 l75 -37 3 -110 c2 -61 2 -112 2 -114
-1 -2 -40 16 -85 40 -46 23 -87 44 -91 46 -5 2 -8 -7 -8 -20 0 -20 27 -36 210
-128 203 -102 210 -105 210 -80 -1 22 -13 31 -95 69 l-95 44 0 115 c0 62 3
112 8 110 4 -2 40 -20 79 -41 40 -20 74 -37 76 -37 2 0 2 10 0 23 -4 18 -41
41 -184 113 -168 84 -179 88 -179 67z"/>
<path d="M1098 886 c-16 -5 -28 -17 -28 -26 0 -17 -66 -265 -100 -379 -19 -63
-24 -69 -65 -89 -25 -12 -45 -27 -45 -34 1 -41 22 -32 220 89 113 69 210 127
216 130 7 2 17 -10 23 -28 l11 -33 27 26 27 27 -37 55 c-20 30 -50 70 -68 90
l-32 37 -24 -23 -23 -22 42 -43 c23 -23 40 -44 37 -47 -8 -7 -270 -166 -274
-166 -3 0 0 12 6 28 15 40 120 414 117 416 -2 2 -15 -2 -30 -8z"/>
</g>
</svg>
